<svg xmlns="http://www.w3.org/2000/svg" viewBox="0 0 100 100" fill="none" stroke="#D4AF37" stroke-width="1" stroke-linecap="round" stroke-linejoin="round">
  <!-- Elegant symmetry and scrollwork -->
  <path d="M50,95 Q50,75 50,55" stroke-width="1.5" />
  <path d="M50,55 C42,50 32,48 24,54 C16,60 18,72 26,76 C34,80 44,72 48,62" />
  <path d="M50,55 C58,50 68,48 76,54 C84,60 82,72 74,76 C66,80 56,72 52,62" />
  <path d="M50,45 C44,35 34,30 26,36 C18,42 16,54 24,60 C32,66 42,60 46,50" />
  <path d="M50,45 C56,35 66,30 74,36 C82,42 84,54 76,60 C68,66 58,60 54,50" />
  <path d="M50,35 C46,25 38,20 30,24 C22,28 20,38 28,44 C36,50 44,42 46,34" />
  <path d="M50,35 C54,25 62,20 70,24 C78,28 80,38 72,44 C64,50 56,42 54,34" />
  <path d="M50,25 Q50,15 50,5" stroke-width="1.5" />
  <!-- Center elements -->
  <circle cx="50" cy="55" r="2.5" fill="#D4AF37" stroke="none" />
  <circle cx="50" cy="45" r="2" fill="#D4AF37" stroke="none" />
  <circle cx="50" cy="35" r="1.5" fill="#D4AF37" stroke="none" />
</svg>