<svg xmlns="http://www.w3.org/2000/svg" viewBox="0 0 64 64" fill="none" stroke="#D4AF37" stroke-width="2" stroke-linecap="round" stroke-linejoin="round">
  <!-- Stand -->
  <path d="M16,56 L48,56 M32,56 L32,50" />
  <!-- Bottom Tier -->
  <rect x="14" y="38" width="36" height="12" rx="4" fill="rgba(212, 175, 55, 0.05)" />
  <!-- Middle Tier -->
  <rect x="20" y="26" width="24" height="12" rx="3" fill="rgba(212, 175, 55, 0.05)" />
  <!-- Top Tier -->
  <rect x="25" y="16" width="14" height="10" rx="2" fill="rgba(212, 175, 55, 0.05)" />
  <!-- Topper (Heart or Flame) -->
  <path d="M32,8 C32,8 30,12 32,14 C34,12 32,8 32,8 Z" fill="#D4AF37" stroke="none" />
  <!-- Cake decorations -->
  <path d="M14,44 C20,44 26,44 32,44 C38,44 44,44 50,44" stroke-dasharray="2 2" />
  <path d="M20,32 C26,32 32,32 38,32 M25,21 C30,21 35,21 39,21" stroke-dasharray="2 2" />
</svg>