<svg xmlns="http://www.w3.org/2000/svg" viewBox="0 0 64 64" fill="none" stroke="#D4AF37" stroke-width="2" stroke-linecap="round" stroke-linejoin="round">
  <!-- Elegant crescent moon -->
  <path d="M42,14 C30,14 20,24 20,36 C20,44 25,50 32,54 C24,52 16,44 16,34 C16,22 26,12 38,12 C40,12 41,12 42,14 Z" fill="rgba(212, 175, 55, 0.1)" />
  <!-- Stars -->
  <polygon points="44,24 46,27 49,27 47,29 48,32 44,30 40,32 41,29 39,27 42,27" fill="#D4AF37" stroke="none" />
  <polygon points="32,16 33,18 35,18 34,19 35,21 32,20 29,21 30,19 29,18 31,18" fill="#D4AF37" stroke="none" />
  <polygon points="28,40 29,41 31,41 30,42 31,44 28,43 25,44 26,42 25,41 27,41" fill="#D4AF37" stroke="none" />
</svg>